<svg width="263" height="75" viewBox="0 0 263 75" fill="none" xmlns="http://www.w3.org/2000/svg">
<path d="M116.661 32.9412H84.6304V36.4706H95.9438V45.7353C95.9438 48.2353 98.2946 50.1471 101.086 50.1471H105.347V36.4706H116.661V32.9412Z" fill="white"/>
<path d="M146.193 36.6176V33.0882H120.187C120.187 33.0882 120.187 44.1176 120.187 45C120.187 47.9412 122.978 50.2941 126.504 50.2941H146.193V46.6176H131.059C130.178 46.6176 129.59 45.8823 129.59 45.2941V43.3824H145.311V40H129.59V36.7647H146.193V36.6176Z" fill="white"/>
<path d="M210.841 50.2941C214.808 50.2941 217.012 47.7941 217.012 45C217.012 42.2059 214.661 40 210.841 39.7059C207.021 39.4118 198.499 38.8235 198.499 38.8235C197.47 38.8235 197.03 38.2353 197.03 37.6471C197.03 37.0588 197.617 36.4706 198.499 36.4706H215.542V32.9412H194.973C190.859 32.9412 188.508 35.1471 188.508 37.7941C188.508 40.4412 190.712 42.7941 194.679 43.0882C194.679 43.0882 205.698 43.9706 206.874 43.9706C208.049 43.9706 208.637 44.5588 208.637 45.2941C208.637 46.0294 207.902 46.4706 206.874 46.4706H189.389V50.1471H210.988L210.841 50.2941Z" fill="white"/>
<path d="M231.264 43.2353L234.643 37.3529C234.937 36.7647 235.672 36.7647 235.965 37.3529L239.345 43.2353H231.264ZM242.283 32.9412H233.174C228.913 32.9412 226.856 35.4412 225.827 37.2059C224.799 38.9706 217.893 50.2941 217.893 50.2941H227.297L229.354 46.7647H241.402L243.459 50.2941H252.862L242.283 32.9412Z" fill="white"/>
<path d="M177.194 33.0882C177.194 33.0882 177.047 33.0882 176.901 33.0882C174.256 33.0882 171.758 34.7059 170.73 36.9118L167.938 42.6471L165.146 36.9118C164.118 34.7059 161.62 33.2353 158.975 33.0882C158.975 33.0882 158.828 33.0882 158.682 33.0882C158.535 33.0882 150.454 33.0882 150.454 33.0882V50.4412H158.975V37.6471H159.269C159.857 37.6471 160.004 37.7941 160.298 38.2353L166.028 50.4412H170.142L175.872 38.2353C176.166 37.7941 176.313 37.6471 176.901 37.6471H177.194V50.4412H185.716V33.0882C185.716 33.0882 177.635 33.0882 177.488 33.0882H177.194Z" fill="white"/>
<path d="M45.6943 69.7059V49.2647C45.6943 41.9118 50.1021 36.7647 56.8608 36.7647C63.6194 36.7647 60.0932 36.7647 62.1502 36.7647C66.2641 36.7647 68.615 35.8824 70.0842 32.3529C70.525 34.4118 70.6719 36.4706 70.6719 38.5294C70.6719 53.6765 60.0932 66.4706 45.8412 69.5588M39.9641 40.7353C38.201 41.0294 35.5563 41.3235 33.4993 43.2353C32.0301 44.7059 31.4423 46.7647 31.4423 50.2941V69.5588C17.4842 66.1765 7.0524 53.5294 7.0524 38.5294C7.0524 20.8824 21.3044 6.61765 38.7887 6.76471C50.5429 6.76471 60.8278 13.2353 66.2641 22.7941H57.3016C56.8608 22.7941 56.42 22.7941 56.1261 22.7941C54.2161 22.7941 52.7468 23.5294 51.5714 24.8529C50.249 26.1765 49.8083 27.7941 49.5144 29.8529C49.0736 33.0882 48.4859 35.1471 46.7228 37.2059C45.8412 38.2353 44.5189 39.1176 43.6373 39.5588C42.0211 40.2941 41.1395 40.5882 39.8172 40.7353M38.7887 2.5C18.9535 2.5 2.7915 18.5294 2.7915 38.5294C2.7915 58.3824 18.8066 74.5588 38.6418 74.5588C58.477 74.5588 74.639 58.5294 74.639 38.5294C74.639 18.6765 58.6239 2.5 38.7887 2.5Z" fill="white"/>
<path d="M38.3479 22.3529C34.3808 22.3529 31.1484 25.5882 31.1484 29.5588C31.1484 33.5294 34.3808 36.7647 38.3479 36.7647C42.3149 36.7647 45.5473 33.5294 45.5473 29.5588C45.5473 25.5882 42.3149 22.3529 38.3479 22.3529Z" fill="white"/>
<path d="M20.5696 22.3529C16.6025 22.3529 13.3701 25.5882 13.3701 29.5588C13.3701 33.5294 16.6025 36.7647 20.5696 36.7647C24.5366 36.7647 27.769 33.5294 27.769 29.5588C27.769 25.5882 24.5366 22.3529 20.5696 22.3529Z" fill="white"/>
</svg>
